<svg width="302" height="72" viewBox="0 0 302 72" fill="none" xmlns="http://www.w3.org/2000/svg">
<g id="Frame 49" filter="url(#filter0_dddd_832_1086)">
<rect width="302" height="72" rx="36" fill="white"/>
<g id="discount 1">
<path id="Vector" fill-rule="evenodd" clip-rule="evenodd" d="M65.9987 31.2433L67.199 32.4433C68.1495 33.3767 68.6664 34.6433 68.6664 35.9767C68.683 37.31 68.1662 38.5783 67.2325 39.5267C67.2214 39.5388 67.2102 39.5497 67.199 39.5603C67.1935 39.5657 67.188 39.5712 67.1824 39.5767L65.9987 40.76C65.5319 41.2267 65.265 41.86 65.265 42.5283V44.2433C65.265 47.01 63.0142 49.2617 60.2465 49.2617H58.5294C57.8624 49.2617 57.2289 49.5267 56.762 49.9933L55.5615 51.1933C54.5779 52.1783 53.294 52.66 52.0102 52.66C50.7265 52.66 49.4427 52.1783 48.459 51.2117L47.2419 49.9933C46.775 49.5267 46.1415 49.2617 45.4746 49.2617H43.7573C40.9896 49.2617 38.7388 47.01 38.7388 44.2433V42.5283C38.7388 41.86 38.472 41.2267 38.0052 40.7433L36.8048 39.56C34.8541 37.6117 34.8374 34.4267 36.7881 32.4616L38.0052 31.2433C38.472 30.7766 38.7388 30.1433 38.7388 29.46V27.76C38.7388 24.9933 40.9896 22.745 43.7573 22.745H45.4746C46.1415 22.745 46.775 22.4766 47.2419 22.01L48.4423 20.81C50.393 18.845 53.5775 18.845 55.5449 20.795L56.762 22.01C57.2289 22.4766 57.8624 22.745 58.5294 22.745H60.2465C63.0142 22.745 65.265 24.9933 65.265 27.76V29.4783C65.265 30.1433 65.5319 30.7766 65.9987 31.2433ZM47.7087 41.7433C48.1089 41.7433 48.4757 41.5933 48.7424 41.31L57.3122 32.745C57.879 32.1783 57.879 31.2433 57.3122 30.6766C56.7454 30.1116 55.8284 30.1116 55.2615 30.6766L46.6917 39.2433C46.1248 39.81 46.1248 40.7433 46.6917 41.31C46.9584 41.5933 47.3252 41.7433 47.7087 41.7433ZM54.828 40.2767C54.828 41.0933 55.4782 41.7433 56.2952 41.7433C57.0954 41.7433 57.7457 41.0933 57.7457 40.2767C57.7457 39.4783 57.0954 38.8267 56.2952 38.8267C55.4782 38.8267 54.828 39.4783 54.828 40.2767ZM47.7254 30.26C48.5257 30.26 49.1759 30.91 49.1759 31.71C49.1759 32.5283 48.5257 33.1767 47.7254 33.1767C46.9251 33.1767 46.2582 32.5283 46.2582 31.71C46.2582 30.91 46.9251 30.26 47.7254 30.26Z" fill="#FF5722"/>
</g>
<path id="Discounted Price" d="M93.037 41.056H95.567C98.235 41.056 100.466 39.4 100.466 35.858C100.466 32.316 98.258 30.637 95.59 30.637H93.037V41.056ZM95.682 44H89.863V27.693H95.705C100.351 27.693 103.755 30.706 103.755 35.858C103.755 41.01 100.328 44 95.682 44ZM109.336 44H106.277V32.684H109.336V44ZM105.909 28.981C105.909 27.923 106.76 27.072 107.795 27.072C108.853 27.072 109.681 27.923 109.681 28.981C109.681 29.993 108.853 30.844 107.795 30.844C106.76 30.844 105.909 29.993 105.909 28.981ZM111.645 40.849L114.267 40.274C114.336 41.171 115.003 41.999 116.337 41.999C117.349 41.999 117.832 41.47 117.832 40.872C117.832 40.366 117.487 39.952 116.613 39.768L115.118 39.423C112.933 38.94 111.944 37.629 111.944 36.042C111.944 34.018 113.738 32.339 116.176 32.339C119.396 32.339 120.477 34.386 120.615 35.605L118.062 36.18C117.97 35.513 117.487 34.662 116.199 34.662C115.394 34.662 114.75 35.145 114.75 35.789C114.75 36.341 115.164 36.686 115.785 36.801L117.395 37.146C119.626 37.606 120.753 38.963 120.753 40.619C120.753 42.459 119.327 44.345 116.36 44.345C112.956 44.345 111.783 42.137 111.645 40.849ZM128.25 35.168C126.686 35.168 125.375 36.295 125.375 38.342C125.375 40.389 126.709 41.539 128.273 41.539C129.837 41.539 130.619 40.504 130.872 39.63L133.563 40.527C133.057 42.413 131.286 44.345 128.273 44.345C124.938 44.345 122.316 41.815 122.316 38.342C122.316 34.846 124.892 32.339 128.181 32.339C131.263 32.339 133.011 34.248 133.494 36.157L130.757 37.077C130.481 36.134 129.768 35.168 128.25 35.168ZM140.783 41.562C142.278 41.562 143.658 40.481 143.658 38.342C143.658 36.203 142.278 35.122 140.783 35.122C139.288 35.122 137.908 36.203 137.908 38.342C137.908 40.458 139.288 41.562 140.783 41.562ZM140.783 32.339C144.164 32.339 146.717 34.846 146.717 38.342C146.717 41.815 144.164 44.345 140.783 44.345C137.402 44.345 134.849 41.815 134.849 38.342C134.849 34.846 137.402 32.339 140.783 32.339ZM156.493 44C156.447 43.77 156.401 43.241 156.401 42.781C155.78 43.839 154.469 44.299 153.273 44.299C150.536 44.299 148.972 42.298 148.972 39.837V32.684H152.031V39.216C152.031 40.481 152.675 41.493 154.101 41.493C155.458 41.493 156.24 40.573 156.24 39.262V32.684H159.299V41.953C159.299 42.827 159.368 43.609 159.414 44H156.493ZM165.623 37.491V44H162.564V32.684H165.531V34.087C166.221 32.914 167.578 32.385 168.797 32.385C171.603 32.385 172.891 34.386 172.891 36.87V44H169.832V37.399C169.832 36.134 169.211 35.145 167.739 35.145C166.405 35.145 165.623 36.18 165.623 37.491ZM179.767 29.303V32.684H182.044V35.398H179.767V40.136C179.767 41.125 180.227 41.447 181.101 41.447C181.469 41.447 181.883 41.401 182.044 41.355V43.885C181.768 44 181.216 44.161 180.319 44.161C178.111 44.161 176.731 42.85 176.731 40.665V35.398H174.684V32.684H175.259C176.455 32.684 177.007 31.902 177.007 30.89V29.303H179.767ZM186.761 37.054H191.821C191.775 35.927 191.039 34.823 189.291 34.823C187.704 34.823 186.83 36.019 186.761 37.054ZM192.12 39.998L194.673 40.757C194.098 42.712 192.304 44.345 189.521 44.345C186.416 44.345 183.679 42.114 183.679 38.296C183.679 34.685 186.347 32.339 189.245 32.339C192.741 32.339 194.834 34.57 194.834 38.204C194.834 38.641 194.788 39.101 194.788 39.147H186.692C186.761 40.642 188.026 41.723 189.544 41.723C190.97 41.723 191.752 41.01 192.12 39.998ZM208.03 27.348V41.953C208.03 42.712 208.076 43.54 208.122 44H205.201C205.155 43.77 205.086 43.218 205.086 42.689C204.58 43.586 203.43 44.276 201.912 44.276C198.692 44.276 196.392 41.746 196.392 38.319C196.392 35.007 198.623 32.408 201.82 32.408C203.775 32.408 204.695 33.213 205.017 33.811V27.348H208.03ZM199.474 38.319C199.474 40.343 200.67 41.539 202.28 41.539C203.844 41.539 205.063 40.343 205.063 38.296C205.063 36.272 203.844 35.145 202.28 35.145C200.716 35.145 199.474 36.295 199.474 38.319ZM220.458 35.122H222.965C224.552 35.122 225.518 34.202 225.518 32.799C225.518 31.35 224.552 30.453 222.965 30.453H220.458V35.122ZM223.356 37.859H220.435V44H217.261V27.693H223.356C226.576 27.693 228.715 29.832 228.715 32.776C228.715 35.743 226.576 37.859 223.356 37.859ZM237.61 32.638V35.72C237.265 35.651 236.966 35.628 236.69 35.628C235.126 35.628 233.769 36.387 233.769 38.825V44H230.71V32.684H233.677V34.363C234.367 32.868 235.931 32.592 236.897 32.592C237.15 32.592 237.38 32.615 237.61 32.638ZM242.821 44H239.762V32.684H242.821V44ZM239.394 28.981C239.394 27.923 240.245 27.072 241.28 27.072C242.338 27.072 243.166 27.923 243.166 28.981C243.166 29.993 242.338 30.844 241.28 30.844C240.245 30.844 239.394 29.993 239.394 28.981ZM251.179 35.168C249.615 35.168 248.304 36.295 248.304 38.342C248.304 40.389 249.638 41.539 251.202 41.539C252.766 41.539 253.548 40.504 253.801 39.63L256.492 40.527C255.986 42.413 254.215 44.345 251.202 44.345C247.867 44.345 245.245 41.815 245.245 38.342C245.245 34.846 247.821 32.339 251.11 32.339C254.192 32.339 255.94 34.248 256.423 36.157L253.686 37.077C253.41 36.134 252.697 35.168 251.179 35.168ZM260.86 37.054H265.92C265.874 35.927 265.138 34.823 263.39 34.823C261.803 34.823 260.929 36.019 260.86 37.054ZM266.219 39.998L268.772 40.757C268.197 42.712 266.403 44.345 263.62 44.345C260.515 44.345 257.778 42.114 257.778 38.296C257.778 34.685 260.446 32.339 263.344 32.339C266.84 32.339 268.933 34.57 268.933 38.204C268.933 38.641 268.887 39.101 268.887 39.147H260.791C260.86 40.642 262.125 41.723 263.643 41.723C265.069 41.723 265.851 41.01 266.219 39.998Z" fill="#191825"/>
</g>
<defs>
<filter id="filter0_dddd_832_1086" x="-83" y="-19" width="468" height="313" filterUnits="userSpaceOnUse" color-interpolation-filters="sRGB">
<feFlood flood-opacity="0" result="BackgroundImageFix"/>
<feColorMatrix in="SourceAlpha" type="matrix" values="0 0 0 0 0 0 0 0 0 0 0 0 0 0 0 0 0 0 127 0" result="hardAlpha"/>
<feOffset/>
<feColorMatrix type="matrix" values="0 0 0 0 0 0 0 0 0 0 0 0 0 0 0 0 0 0 0.03 0"/>
<feBlend mode="normal" in2="BackgroundImageFix" result="effect1_dropShadow_832_1086"/>
<feColorMatrix in="SourceAlpha" type="matrix" values="0 0 0 0 0 0 0 0 0 0 0 0 0 0 0 0 0 0 127 0" result="hardAlpha"/>
<feOffset dy="15"/>
<feGaussianBlur stdDeviation="17"/>
<feColorMatrix type="matrix" values="0 0 0 0 0 0 0 0 0 0 0 0 0 0 0 0 0 0 0.03 0"/>
<feBlend mode="normal" in2="effect1_dropShadow_832_1086" result="effect2_dropShadow_832_1086"/>
<feColorMatrix in="SourceAlpha" type="matrix" values="0 0 0 0 0 0 0 0 0 0 0 0 0 0 0 0 0 0 127 0" result="hardAlpha"/>
<feOffset dy="62"/>
<feGaussianBlur stdDeviation="31"/>
<feColorMatrix type="matrix" values="0 0 0 0 0 0 0 0 0 0 0 0 0 0 0 0 0 0 0.02 0"/>
<feBlend mode="normal" in2="effect2_dropShadow_832_1086" result="effect3_dropShadow_832_1086"/>
<feColorMatrix in="SourceAlpha" type="matrix" values="0 0 0 0 0 0 0 0 0 0 0 0 0 0 0 0 0 0 127 0" result="hardAlpha"/>
<feOffset dy="139"/>
<feGaussianBlur stdDeviation="41.5"/>
<feColorMatrix type="matrix" values="0 0 0 0 0 0 0 0 0 0 0 0 0 0 0 0 0 0 0.01 0"/>
<feBlend mode="normal" in2="effect3_dropShadow_832_1086" result="effect4_dropShadow_832_1086"/>
<feBlend mode="normal" in="SourceGraphic" in2="effect4_dropShadow_832_1086" result="shape"/>
</filter>
</defs>
</svg>
