<svg width="307" height="72" viewBox="0 0 307 72" fill="none" xmlns="http://www.w3.org/2000/svg">
<rect width="307" height="72" rx="36" fill="white"/>
<path d="M47.2475 28.4805C46.3141 28.4805 45.5808 29.2305 45.5808 30.1471C45.5808 31.0638 46.3308 31.8138 47.2475 31.8138C48.1641 31.8138 48.9141 31.0638 48.9141 30.1471C48.9141 29.2305 48.1641 28.4805 47.2475 28.4805Z" fill="#FF5722"/>
<path d="M67.7666 24.3999C66.3666 21.1499 63.2833 19.3333 58.9833 19.3333H45.0166C39.6666 19.3333 35.3333 23.6666 35.3333 29.0166V42.9833C35.3333 47.2833 37.1499 50.3666 40.3999 51.7666C40.7166 51.8999 41.0833 51.8166 41.3166 51.5833L67.5833 25.3166C67.8333 25.0666 67.9166 24.6999 67.7666 24.3999ZM49.5499 36.3999C48.8999 37.0333 48.0499 37.3333 47.1999 37.3333C46.3499 37.3333 45.4999 37.0166 44.8499 36.3999C43.1499 34.7999 41.2833 32.2499 41.9999 29.2166C42.6333 26.4666 45.0666 25.2333 47.1999 25.2333C49.3333 25.2333 51.7666 26.4666 52.3999 29.2333C53.0999 32.2499 51.2333 34.7999 49.5499 36.3999Z" fill="#FF5722"/>
<path d="M64.4482 50.2159C64.8148 50.5826 64.7648 51.1826 64.3148 51.4326C62.8482 52.2492 61.0648 52.6659 58.9815 52.6659H45.0149C44.5315 52.6659 44.3315 52.0992 44.6649 51.7659L54.7315 41.6992C55.0648 41.3659 55.5815 41.3659 55.9148 41.6992L64.4482 50.2159Z" fill="#FF5722"/>
<path d="M68.6696 29.0149V42.9815C68.6696 45.0648 68.2529 46.8648 67.4363 48.3148C67.1863 48.7648 66.5863 48.7982 66.2196 48.4482L57.6863 39.9148C57.3529 39.5815 57.3529 39.0648 57.6863 38.7315L67.7529 28.6649C68.1029 28.3315 68.6696 28.5315 68.6696 29.0149Z" fill="#FF5722"/>
<path d="M93.06 35.122H95.567C97.154 35.122 98.12 34.202 98.12 32.799C98.12 31.35 97.154 30.453 95.567 30.453H93.06V35.122ZM95.958 37.859H93.037V44H89.863V27.693H95.958C99.178 27.693 101.317 29.832 101.317 32.776C101.317 35.743 99.178 37.859 95.958 37.859ZM102.487 40.918C102.487 38.894 103.982 37.767 105.868 37.491L108.651 37.077C109.295 36.985 109.502 36.663 109.502 36.272C109.502 35.467 108.881 34.8 107.593 34.8C106.259 34.8 105.523 35.651 105.431 36.64L102.717 36.065C102.901 34.294 104.534 32.339 107.57 32.339C111.158 32.339 112.492 34.363 112.492 36.64V42.206C112.492 42.804 112.561 43.609 112.63 44H109.824C109.755 43.701 109.709 43.08 109.709 42.643C109.134 43.54 108.053 44.322 106.374 44.322C103.959 44.322 102.487 42.689 102.487 40.918ZM107.018 42.045C108.306 42.045 109.502 41.424 109.502 39.423V38.917L106.949 39.308C106.167 39.423 105.546 39.86 105.546 40.734C105.546 41.401 106.029 42.045 107.018 42.045ZM122.475 32.638V35.72C122.13 35.651 121.831 35.628 121.555 35.628C119.991 35.628 118.634 36.387 118.634 38.825V44H115.575V32.684H118.542V34.363C119.232 32.868 120.796 32.592 121.762 32.592C122.015 32.592 122.245 32.615 122.475 32.638ZM124.005 40.918C124.005 38.894 125.5 37.767 127.386 37.491L130.169 37.077C130.813 36.985 131.02 36.663 131.02 36.272C131.02 35.467 130.399 34.8 129.111 34.8C127.777 34.8 127.041 35.651 126.949 36.64L124.235 36.065C124.419 34.294 126.052 32.339 129.088 32.339C132.676 32.339 134.01 34.363 134.01 36.64V42.206C134.01 42.804 134.079 43.609 134.148 44H131.342C131.273 43.701 131.227 43.08 131.227 42.643C130.652 43.54 129.571 44.322 127.892 44.322C125.477 44.322 124.005 42.689 124.005 40.918ZM128.536 42.045C129.824 42.045 131.02 41.424 131.02 39.423V38.917L128.467 39.308C127.685 39.423 127.064 39.86 127.064 40.734C127.064 41.401 127.547 42.045 128.536 42.045ZM147.835 27.348V41.953C147.835 42.712 147.881 43.54 147.927 44H145.006C144.96 43.77 144.891 43.218 144.891 42.689C144.385 43.586 143.235 44.276 141.717 44.276C138.497 44.276 136.197 41.746 136.197 38.319C136.197 35.007 138.428 32.408 141.625 32.408C143.58 32.408 144.5 33.213 144.822 33.811V27.348H147.835ZM139.279 38.319C139.279 40.343 140.475 41.539 142.085 41.539C143.649 41.539 144.868 40.343 144.868 38.296C144.868 36.272 143.649 35.145 142.085 35.145C140.521 35.145 139.279 36.295 139.279 38.319ZM154.213 44H151.154V32.684H154.213V44ZM150.786 28.981C150.786 27.923 151.637 27.072 152.672 27.072C153.73 27.072 154.558 27.923 154.558 28.981C154.558 29.993 153.73 30.844 152.672 30.844C151.637 30.844 150.786 29.993 150.786 28.981ZM156.521 40.849L159.143 40.274C159.212 41.171 159.879 41.999 161.213 41.999C162.225 41.999 162.708 41.47 162.708 40.872C162.708 40.366 162.363 39.952 161.489 39.768L159.994 39.423C157.809 38.94 156.82 37.629 156.82 36.042C156.82 34.018 158.614 32.339 161.052 32.339C164.272 32.339 165.353 34.386 165.491 35.605L162.938 36.18C162.846 35.513 162.363 34.662 161.075 34.662C160.27 34.662 159.626 35.145 159.626 35.789C159.626 36.341 160.04 36.686 160.661 36.801L162.271 37.146C164.502 37.606 165.629 38.963 165.629 40.619C165.629 42.459 164.203 44.345 161.236 44.345C157.832 44.345 156.659 42.137 156.521 40.849ZM170.275 37.054H175.335C175.289 35.927 174.553 34.823 172.805 34.823C171.218 34.823 170.344 36.019 170.275 37.054ZM175.634 39.998L178.187 40.757C177.612 42.712 175.818 44.345 173.035 44.345C169.93 44.345 167.193 42.114 167.193 38.296C167.193 34.685 169.861 32.339 172.759 32.339C176.255 32.339 178.348 34.57 178.348 38.204C178.348 38.641 178.302 39.101 178.302 39.147H170.206C170.275 40.642 171.54 41.723 173.058 41.723C174.484 41.723 175.266 41.01 175.634 39.998ZM191.523 41.562C193.018 41.562 194.398 40.481 194.398 38.342C194.398 36.203 193.018 35.122 191.523 35.122C190.028 35.122 188.648 36.203 188.648 38.342C188.648 40.458 190.028 41.562 191.523 41.562ZM191.523 32.339C194.904 32.339 197.457 34.846 197.457 38.342C197.457 41.815 194.904 44.345 191.523 44.345C188.142 44.345 185.589 41.815 185.589 38.342C185.589 34.846 188.142 32.339 191.523 32.339ZM202.93 37.491V44H199.871V32.684H202.838V34.087C203.528 32.914 204.885 32.385 206.104 32.385C208.91 32.385 210.198 34.386 210.198 36.87V44H207.139V37.399C207.139 36.134 206.518 35.145 205.046 35.145C203.712 35.145 202.93 36.18 202.93 37.491ZM229.428 44H219.216V27.693H229.428V30.683H222.39V34.409H228.761V37.238H222.39V41.01H229.428V44ZM231.547 40.918C231.547 38.894 233.042 37.767 234.928 37.491L237.711 37.077C238.355 36.985 238.562 36.663 238.562 36.272C238.562 35.467 237.941 34.8 236.653 34.8C235.319 34.8 234.583 35.651 234.491 36.64L231.777 36.065C231.961 34.294 233.594 32.339 236.63 32.339C240.218 32.339 241.552 34.363 241.552 36.64V42.206C241.552 42.804 241.621 43.609 241.69 44H238.884C238.815 43.701 238.769 43.08 238.769 42.643C238.194 43.54 237.113 44.322 235.434 44.322C233.019 44.322 231.547 42.689 231.547 40.918ZM236.078 42.045C237.366 42.045 238.562 41.424 238.562 39.423V38.917L236.009 39.308C235.227 39.423 234.606 39.86 234.606 40.734C234.606 41.401 235.089 42.045 236.078 42.045ZM251.536 32.638V35.72C251.191 35.651 250.892 35.628 250.616 35.628C249.052 35.628 247.695 36.387 247.695 38.825V44H244.636V32.684H247.603V34.363C248.293 32.868 249.857 32.592 250.823 32.592C251.076 32.592 251.306 32.615 251.536 32.638ZM257.909 29.303V32.684H260.186V35.398H257.909V40.136C257.909 41.125 258.369 41.447 259.243 41.447C259.611 41.447 260.025 41.401 260.186 41.355V43.885C259.91 44 259.358 44.161 258.461 44.161C256.253 44.161 254.873 42.85 254.873 40.665V35.398H252.826V32.684H253.401C254.597 32.684 255.149 31.902 255.149 30.89V29.303H257.909ZM265.282 37.353V44H262.223V27.348H265.282V33.627C266.018 32.753 267.26 32.385 268.341 32.385C271.216 32.385 272.55 34.386 272.55 36.87V44H269.491V37.399C269.491 36.134 268.87 35.145 267.398 35.145C266.11 35.145 265.351 36.111 265.282 37.353Z" fill="#191825"/>
</svg>
