<svg width="112" height="112" viewBox="0 0 112 112" fill="none" xmlns="http://www.w3.org/2000/svg">
<rect width="112" height="112" rx="56" fill="#FACD49"/>
<path fill-rule="evenodd" clip-rule="evenodd" d="M71.522 56.002C71.522 57.629 72.858 58.9528 74.5 58.9528C75.328 58.9528 76 59.6186 76 60.439V65.7916C76 70.318 72.284 74 67.716 74H44.286C39.718 74 36 70.318 36 65.7916V60.439C36 59.6186 36.672 58.9528 37.5 58.9528C39.144 58.9528 40.48 57.629 40.48 56.002C40.48 54.4166 39.198 53.2236 37.5 53.2236C37.102 53.2236 36.722 53.067 36.44 52.7876C36.158 52.5082 36 52.1296 36 51.7373L36.004 46.2103C36.004 41.684 39.72 38 44.288 38H67.712C72.28 38 75.998 41.684 75.998 46.2103L76 51.5649C76 51.9573 75.842 52.3378 75.562 52.6152C75.28 52.8946 74.9 53.0512 74.5 53.0512C72.858 53.0512 71.522 54.375 71.522 56.002ZM60.504 57.296L62.862 55.021C63.272 54.6286 63.414 54.05 63.236 53.515C63.06 52.9798 62.6 52.5994 62.044 52.522L58.786 52.0504L57.328 49.1254C57.078 48.622 56.57 48.3089 56.004 48.3069H56C55.436 48.3069 54.928 48.6201 54.674 49.1234L53.216 52.0504L49.964 52.52C49.402 52.5994 48.942 52.9798 48.764 53.515C48.588 54.05 48.73 54.6286 49.138 55.021L51.496 57.296L50.94 60.5124C50.844 61.0672 51.07 61.6182 51.53 61.9492C51.79 62.1334 52.092 62.2286 52.398 62.2286C52.632 62.2286 52.868 62.171 53.084 62.0582L56 60.5402L58.91 62.0542C59.414 62.3216 60.012 62.28 60.47 61.9472C60.932 61.6182 61.158 61.0672 61.062 60.5124L60.504 57.296Z" fill="white"/>
</svg>
